<?xml version="1.0" standalone="no"?>
<!DOCTYPE svg PUBLIC "-//W3C//DTD SVG 20010904//EN"
 "http://www.w3.org/TR/2001/REC-SVG-20010904/DTD/svg10.dtd">
<svg version="1.0" xmlns="http://www.w3.org/2000/svg"
 width="360.000000pt" height="360.000000pt" viewBox="0 0 360.000000 360.000000"
 preserveAspectRatio="xMidYMid meet">
<metadata>
Created by potrace 1.14, written by Peter Selinger 2001-2017
</metadata>
<g transform="translate(0.000000,360.000000) scale(0.100000,-0.100000)"
fill="#ffc342" stroke="none">
<path d="M2730 3215 c-110 -31 -199 -114 -241 -225 -29 -77 -24 -193 12 -270
104 -224 407 -276 575 -98 80 85 110 165 102 278 -16 217 -237 373 -448 315z
m191 -166 c67 -33 109 -105 109 -184 0 -44 -43 -129 -78 -153 -115 -82 -265
-44 -317 80 -73 176 113 344 286 257z"/>
<path d="M638 2353 c5 -1271 7 -1422 26 -1492 47 -180 142 -267 347 -320 225
-58 756 -56 1409 4 146 14 271 25 278 25 10 0 12 17 8 77 -3 43 -8 135 -12
205 l-6 126 -66 -18 c-226 -62 -614 -101 -1012 -101 -392 1 -511 28 -560 126
-25 50 -25 52 -28 369 -2 175 0 322 5 327 4 4 73 22 153 39 286 60 584 150
865 262 128 50 553 248 579 269 4 4 -46 84 -113 178 l-121 170 -78 -56 c-144
-104 -493 -262 -807 -368 -142 -47 -433 -125 -468 -125 -19 0 -19 12 -14 438
2 240 8 447 12 460 l7 22 -203 0 -204 0 3 -617z"/>
</g>
</svg>
