<svg height="360pt" preserveAspectRatio="xMidYMid meet" viewBox="0 0 360 360" width="360pt" xmlns="http://www.w3.org/2000/svg"><g fill="#ffc342" transform="matrix(.1 0 0 -.1 0 360)"><path d="m2730 3215c-110-31-199-114-241-225-29-77-24-193 12-270 104-224 407-276 575-98 80 85 110 165 102 278-16 217-237 373-448 315zm191-166c67-33 109-105 109-184 0-44-43-129-78-153-115-82-265-44-317 80-73 176 113 344 286 257z"/><path d="m638 2353c5-1271 7-1422 26-1492 47-180 142-267 347-320 225-58 756-56 1409 4 146 14 271 25 278 25 10 0 12 17 8 77-3 43-8 135-12 205l-6 126-66-18c-226-62-614-101-1012-101-392 1-511 28-560 126-25 50-25 52-28 369-2 175 0 322 5 327 4 4 73 22 153 39 286 60 584 150 865 262 128 50 553 248 579 269 4 4-46 84-113 178l-121 170-78-56c-144-104-493-262-807-368-142-47-433-125-468-125-19 0-19 12-14 438 2 240 8 447 12 460l7 22h-203-204z"/></g></svg>